<?xml version="1.0" standalone="no"?>
<!DOCTYPE svg PUBLIC "-//W3C//DTD SVG 20010904//EN"
 "http://www.w3.org/TR/2001/REC-SVG-20010904/DTD/svg10.dtd">
<svg version="1.0" xmlns="http://www.w3.org/2000/svg"
 width="192.000000pt" height="192.000000pt" viewBox="0 0 192.000000 192.000000"
 preserveAspectRatio="xMidYMid meet">
<metadata>
Created by potrace 1.14, written by Peter Selinger 2001-2017
</metadata>
<g transform="translate(0.000000,192.000000) scale(0.100000,-0.100000)"
fill="#000000" stroke="none">
<path d="M333 1867 c-101 -107 -168 -236 -180 -349 -7 -66 9 -77 21 -14 4 18
24 60 45 92 40 62 121 158 127 151 2 -2 -16 -47 -41 -99 -68 -143 -87 -228
-88 -378 -1 -109 3 -138 28 -227 16 -57 33 -103 38 -103 4 0 6 44 3 98 -4 61
-2 88 3 72 5 -14 9 -38 10 -55 1 -16 12 -54 26 -84 14 -29 59 -144 100 -255
42 -110 78 -208 81 -216 5 -12 8 -11 13 5 7 17 8 17 15 -8 8 -33 26 -36 27 -4
0 14 8 3 20 -31 20 -52 38 -61 40 -19 0 12 8 -2 16 -30 16 -56 28 -66 38 -34
10 32 34 34 41 3 21 -99 25 -104 110 -152 121 -67 118 -62 67 -115 l-43 -46
36 -34 c51 -48 91 -48 139 2 19 20 35 40 35 44 0 4 -20 25 -44 46 l-43 37 76
40 c42 21 89 48 105 59 30 21 56 72 56 110 0 32 27 31 35 -1 8 -32 20 -19 38
43 9 28 16 40 16 28 2 -42 20 -33 40 19 12 34 20 45 20 31 1 -32 19 -29 27 4
7 25 8 25 15 8 8 -24 -2 -47 98 225 40 107 81 213 91 235 30 63 70 283 70 382
0 90 -24 213 -56 288 -28 67 -103 176 -160 232 l-55 53 -503 0 -503 0 -50 -53z
m610 -294 c-7 -2 -19 -2 -25 0 -7 3 -2 5 12 5 14 0 19 -2 13 -5z m84 1 c-3 -3
-12 -4 -19 -1 -8 3 -5 6 6 6 11 1 17 -2 13 -5z m-100 -86 c-3 -7 -5 -2 -5 12
0 14 2 19 5 13 2 -7 2 -19 0 -25z m10 -40 c-3 -8 -6 -5 -6 6 -1 11 2 17 5 13
3 -3 4 -12 1 -19z m39 -125 c-5 -5 -36 86 -35 101 0 6 9 -13 20 -43 10 -30 17
-56 15 -58z m-429 45 c-3 -7 -5 -2 -5 12 0 14 2 19 5 13 2 -7 2 -19 0 -25z
m800 -90 c-3 -8 -6 -5 -6 6 -1 11 2 17 5 13 3 -3 4 -12 1 -19z m-611 -64 c18
-14 18 -15 -4 -4 -37 18 -162 -6 -162 -31 0 -8 4 -8 14 0 8 7 27 11 43 8 27
-4 27 -4 -4 -6 -17 0 -35 -5 -38 -11 -10 -17 -25 -11 -25 9 0 13 11 23 33 30
74 23 118 25 143 5z m591 0 c16 -4 23 -13 23 -30 0 -21 -3 -23 -19 -14 -11 5
-32 10 -48 10 -15 0 -39 9 -53 20 -16 12 -35 17 -55 14 -28 -4 -29 -3 -5 6 24
9 110 5 157 -6z m-204 -11 c-7 -2 -19 -2 -25 0 -7 3 -2 5 12 5 14 0 19 -2 13
-5z m-274 -78 c37 -42 37 -48 8 -99 -37 -66 -65 -80 -159 -81 l-82 0 -18 70
c-18 70 -16 123 6 137 25 17 34 6 38 -42 2 -34 -1 -50 -9 -50 -6 0 -15 5 -18
10 -3 6 -11 10 -17 10 -24 0 16 -30 41 -31 14 0 35 -4 46 -9 26 -11 11 -11
-43 -1 -34 7 -42 6 -38 -5 3 -7 8 -29 12 -48 l6 -36 57 1 c50 1 126 15 94 18
-21 2 -15 18 8 24 12 3 18 10 14 16 -3 6 0 11 8 11 8 0 20 7 27 15 7 8 16 13
20 10 4 -3 11 2 14 11 9 23 -18 67 -66 109 -28 24 -32 30 -12 16 18 -11 46
-37 63 -56z m214 57 c-10 -10 -20 -17 -22 -16 -6 5 20 34 30 34 5 0 1 -8 -8
-18z m-303 -32 c11 -7 12 -12 3 -21 -8 -8 -14 -6 -22 10 -12 22 -5 27 19 11z
m500 -5 c0 -8 -7 -15 -15 -15 -8 0 -15 7 -15 15 0 8 7 15 15 15 8 0 15 -7 15
-15z m54 9 c10 -4 16 -18 16 -38 0 -25 -6 -35 -25 -44 -14 -7 -27 -12 -28 -12
-1 0 0 22 1 50 4 51 8 55 36 44z m-492 -32 c21 -17 8 -52 -20 -52 -13 0 -17 9
-17 39 0 40 5 41 37 13z m154 6 l19 -23 -25 20 c-14 11 -27 21 -29 22 -2 2 0
3 6 3 5 0 18 -10 29 -22z m159 -18 c0 -38 -2 -41 -25 -38 -34 4 -39 36 -9 59
33 25 34 24 34 -21z m265 -59 c-9 -36 -24 -55 -41 -56 -3 0 -13 -8 -23 -17
-14 -15 -15 -18 -3 -18 9 0 18 6 20 13 3 7 6 5 6 -5 1 -10 -3 -18 -8 -18 -5 0
-23 -3 -41 -7 l-33 -6 45 41 c25 23 53 60 63 82 22 50 30 46 15 -9z m-432 14
c-3 -3 -9 2 -12 12 -6 14 -5 15 5 6 7 -7 10 -15 7 -18z m122 -13 c3 -3 -3 -2
-12 1 -23 8 -23 2 2 -38 24 -39 61 -56 126 -58 46 -2 49 0 71 38 l22 40 -32 6
c-32 5 -31 5 10 10 l42 4 -32 -59 -31 -58 -61 6 c-34 3 -71 14 -85 24 -23 17
-69 87 -70 105 0 7 39 -9 50 -21z m-763 -4 c-3 -8 -6 -5 -6 6 -1 11 2 17 5 13
3 -3 4 -12 1 -19z m426 -5 c-7 -2 -19 -2 -25 0 -7 3 -2 5 12 5 14 0 19 -2 13
-5z m440 0 c-7 -2 -19 -2 -25 0 -7 3 -2 5 12 5 14 0 19 -2 13 -5z m-46 -53
c16 -21 9 -24 -19 -9 -24 13 -47 38 -48 52 0 10 52 -23 67 -43z m-182 20 c10
-11 16 -20 13 -20 -3 0 -13 9 -23 20 -10 11 -16 20 -13 20 3 0 13 -9 23 -20z
m-384 -46 c22 -25 22 -26 3 -16 -12 6 -24 18 -28 27 -8 21 -3 19 25 -11z m299
13 c0 -2 -15 -16 -32 -33 l-33 -29 29 33 c28 30 36 37 36 29z m196 -29 l29
-33 -32 29 c-31 28 -38 36 -30 36 2 0 16 -15 33 -32z m-104 -53 c2 -30 -1 -40
-12 -40 -8 0 -15 6 -14 13 1 6 2 29 3 49 1 48 18 32 23 -22z m-445 -67 c-3 -8
-6 -5 -6 6 -1 11 2 17 5 13 3 -3 4 -12 1 -19z m10 -50 c-3 -8 -6 -5 -6 6 -1
11 2 17 5 13 3 -3 4 -12 1 -19z m386 -15 c-7 -2 -19 -2 -25 0 -7 3 -2 5 12 5
14 0 19 -2 13 -5z m100 0 c-7 -2 -19 -2 -25 0 -7 3 -2 5 12 5 14 0 19 -2 13
-5z m-126 -119 c-3 -3 -12 -4 -19 -1 -8 3 -5 6 6 6 11 1 17 -2 13 -5z m156 -1
c-7 -2 -19 -2 -25 0 -7 3 -2 5 12 5 14 0 19 -2 13 -5z m181 -1 c3 -5 -1 -9 -9
-9 -8 0 -12 4 -9 9 3 4 7 8 9 8 2 0 6 -4 9 -8z m-97 -8 c-3 -3 -12 -4 -19 -1
-8 3 -5 6 6 6 11 1 17 -2 13 -5z m-164 -31 c-7 -2 -19 -2 -25 0 -7 3 -2 5 12
5 14 0 19 -2 13 -5z m-70 -104 c-6 -6 -7 3 -4 23 4 28 6 29 9 9 2 -13 0 -27
-5 -32z m119 22 c2 -17 1 -28 -4 -25 -8 5 -12 54 -4 54 2 0 6 -13 8 -29z"/>
<path d="M840 1033 c0 -6 -12 -22 -26 -37 -15 -14 -22 -26 -16 -26 14 0 56 59
48 67 -3 4 -6 2 -6 -4z"/>
<path d="M405 215 c-86 -15 -190 -41 -228 -57 -20 -8 -26 -15 -21 -27 4 -9 14
-42 23 -73 l16 -58 228 0 229 0 -23 38 c-12 20 -30 48 -39 62 -10 14 -29 49
-44 78 -30 59 -28 58 -141 37z"/>
<path d="M1374 179 c-14 -30 -34 -65 -44 -79 -9 -14 -27 -42 -39 -62 l-23 -38
229 0 228 0 18 63 c26 90 26 88 -17 103 -40 14 -192 47 -278 59 l-47 7 -27
-53z"/>
</g>
</svg>
